<svg width="32" height="32" viewBox="0 0 32 32" fill="none" xmlns="http://www.w3.org/2000/svg">
  <!-- Background circle -->
  <circle cx="16" cy="16" r="16" fill="url(#gradient)" />
  
  <!-- Wheat/crop icon -->
  <path d="M16 6C14.5 6 13.5 7 13.5 8.5V10C13.5 10.8 14.2 11.5 15 11.5C15.8 11.5 16.5 10.8 16.5 10V8.5C16.5 7 15.5 6 16 6Z" fill="white" />
  <path d="M16 10V14C16 14.8 16.7 15.5 17.5 15.5C18.3 15.5 19 14.8 19 14V10C19 9.2 18.3 8.5 17.5 8.5C16.7 8.5 16 9.2 16 10Z" fill="white" opacity="0.8" />
  <path d="M13 10V14C13 14.8 13.7 15.5 14.5 15.5C15.3 15.5 16 14.8 16 14V10C16 9.2 15.3 8.5 14.5 8.5C13.7 8.5 13 9.2 13 10Z" fill="white" opacity="0.8" />
  
  <!-- Stem -->
  <rect x="15.5" y="15" width="1" height="10" fill="white" />
  
  <!-- Leaves -->
  <ellipse cx="12" cy="18" rx="3" ry="1.5" fill="white" opacity="0.6" transform="rotate(-30 12 18)" />
  <ellipse cx="20" cy="20" rx="3" ry="1.5" fill="white" opacity="0.6" transform="rotate(30 20 20)" />
  
  <defs>
    <linearGradient id="gradient" x1="0%" y1="0%" x2="100%" y2="100%">
      <stop offset="0%" style="stop-color:#10b981;stop-opacity:1" />
      <stop offset="100%" style="stop-color:#059669;stop-opacity:1" />
    </linearGradient>
  </defs>
</svg>